<svg width="17" height="16" viewBox="0 0 17 16" fill="none" xmlns="http://www.w3.org/2000/svg">
<path d="M14.6097 1.75H2.39099C2.09714 1.75 1.85974 1.97344 1.85974 2.25V13.75C1.85974 14.0266 2.09714 14.25 2.39099 14.25H14.6097C14.9036 14.25 15.141 14.0266 15.141 13.75V2.25C15.141 1.97344 14.9036 1.75 14.6097 1.75ZM13.0758 5.39844H12.0149C11.1832 5.39844 11.0221 5.77031 11.0221 6.31719V7.52187H13.0077L12.7487 9.40781H11.0221V14.25H8.95193V9.40938H7.22039V7.52187H8.95193V6.13125C8.95193 4.51719 9.99949 3.6375 11.5302 3.6375C12.2639 3.6375 12.8931 3.68906 13.0774 3.7125V5.39844H13.0758Z" fill="white"/>
</svg>
