<svg width="886" height="48" viewBox="0 0 886 48" fill="none" xmlns="http://www.w3.org/2000/svg">
<path d="M32.8994 46.4387C33.3803 46.049 33.7619 45.5861 34.0222 45.0764C34.2825 44.5668 34.4165 44.0205 34.4165 43.4688C34.4165 42.917 34.2825 42.3707 34.0222 41.8611C33.7619 41.3515 33.3803 40.8885 32.8994 40.4988L12.7711 24.1535L32.8994 7.80818C33.8694 7.0205 34.4143 5.95217 34.4143 4.83822C34.4143 3.72427 33.8694 2.65594 32.8994 1.86825C31.9294 1.08057 30.6138 0.638064 29.2421 0.638064C27.8703 0.638063 26.5547 1.08057 25.5847 1.86825L1.7732 21.2046C1.29228 21.5943 0.910734 22.0573 0.650408 22.5669C0.390081 23.0765 0.256087 23.6228 0.256087 24.1746C0.256087 24.7263 0.390081 25.2726 0.650407 25.7822C0.910734 26.2919 1.29228 26.7548 1.77319 27.1445L25.5847 46.4809C27.5561 48.0817 30.8762 48.0817 32.8994 46.4387Z" fill="white"/>
<path d="M852.915 1.87572C852.434 2.26545 852.052 2.72838 851.792 3.23801C851.531 3.74763 851.397 4.29395 851.397 4.84568C851.397 5.39741 851.531 5.94373 851.792 6.45335C852.052 6.96298 852.434 7.42591 852.915 7.81564L873.043 24.161L852.915 40.5063C851.945 41.294 851.4 42.3623 851.4 43.4762C851.4 44.5902 851.945 45.6585 852.915 46.4462C853.885 47.2339 855.2 47.6764 856.572 47.6764C857.944 47.6764 859.259 47.2339 860.229 46.4462L884.041 27.1099C884.522 26.7201 884.903 26.2572 885.164 25.7476C885.424 25.2379 885.558 24.6916 885.558 24.1399C885.558 23.5882 885.424 23.0418 885.164 22.5322C884.903 22.0226 884.522 21.5597 884.041 21.1699L860.229 1.83359C858.258 0.232761 854.938 0.232762 852.915 1.87572Z" fill="white"/>
</svg>
