<svg width="159" height="106" viewBox="0 0 159 106" fill="none" xmlns="http://www.w3.org/2000/svg">
<path d="M55.2823 37.9004C53.4595 38.6739 51.4758 39.2305 49.4325 39.4473C51.5539 38.2077 53.1425 36.2492 53.9003 33.9395C51.9096 35.1043 49.7289 35.921 47.4548 36.3535C46.5043 35.3541 45.3548 34.5579 44.0778 34.0145C42.8008 33.4712 41.4237 33.1923 40.0323 33.1953C34.4029 33.1953 29.8756 37.6836 29.8756 43.1914C29.8756 43.9649 29.9709 44.7383 30.1258 45.4824C21.6966 45.0489 14.1788 41.0879 9.18086 35.0235C8.27018 36.5534 7.79295 38.2955 7.79883 40.0684C7.79883 43.5371 9.59189 46.5957 12.3262 48.3946C10.7148 48.3321 9.1412 47.8965 7.7333 47.1231V47.2461C7.7333 52.1035 11.2241 56.1289 15.8766 57.0547C15.003 57.2779 14.1044 57.3921 13.2019 57.3946C12.5406 57.3946 11.9151 57.3301 11.2837 57.2422C12.5704 61.2032 16.3174 64.0801 20.7792 64.1739C17.2884 66.8633 12.9159 68.4453 8.16816 68.4453C7.31631 68.4453 6.52998 68.416 5.71387 68.3223C10.2174 71.1641 15.5608 72.8047 21.3153 72.8047C39.9966 72.8047 50.2188 57.5821 50.2188 44.3692C50.2188 43.9356 50.2188 43.502 50.1891 43.0684C52.1668 41.6446 53.9003 39.8809 55.2823 37.9004Z" fill="white"/>
<path d="M148.595 24.4844H95.4077C94.1286 24.4844 93.0952 25.5038 93.0952 26.7656V79.2344C93.0952 80.4962 94.1286 81.5156 95.4077 81.5156H148.595C149.874 81.5156 150.908 80.4962 150.908 79.2344V26.7656C150.908 25.5038 149.874 24.4844 148.595 24.4844ZM141.918 41.1304H137.3C133.68 41.1304 132.979 42.8271 132.979 45.3222V50.8186H141.622L140.494 59.4231H132.979V81.5156H123.967V59.4303H116.43V50.8186H123.967V44.4738C123.967 37.1097 128.527 33.0961 135.19 33.0961C138.384 33.0961 141.123 33.3313 141.925 33.4383V41.1304H141.918Z" fill="white"/>
</svg>
