<svg width="175" height="90" viewBox="0 0 175 90" fill="none" xmlns="http://www.w3.org/2000/svg">
<path d="M37.145 34.6853C35.9202 35.2136 34.5873 35.5939 33.2144 35.742C34.6398 34.8952 35.7072 33.5574 36.2164 31.9795C34.8788 32.7752 33.4136 33.3332 31.8855 33.6286C31.2469 32.9459 30.4745 32.402 29.6165 32.0308C28.7585 31.6596 27.8332 31.4691 26.8983 31.4712C23.1159 31.4712 20.0739 34.5372 20.0739 38.2996C20.0739 38.828 20.1379 39.3563 20.242 39.8647C14.5783 39.5685 9.52705 36.8627 6.16887 32.72C5.55697 33.7652 5.23632 34.9552 5.24026 36.1663C5.24026 38.5358 6.44505 40.6251 8.28224 41.8539C7.19955 41.8113 6.14222 41.5137 5.19624 40.9854V41.0694C5.19624 44.3876 7.54176 47.1374 10.6678 47.7698C10.0808 47.9222 9.47704 48.0002 8.87062 48.0019C8.42633 48.0019 8.00606 47.9579 7.58178 47.8979C8.44634 50.6036 10.964 52.5689 13.9619 52.6329C11.6164 54.4701 8.6785 55.5508 5.48843 55.5508C4.91605 55.5508 4.38771 55.5308 3.83936 55.4668C6.86532 57.408 10.4556 58.5288 14.3222 58.5288C26.8743 58.5288 33.7428 48.13 33.7428 39.1042C33.7428 38.808 33.7428 38.5118 33.7227 38.2156C35.0516 37.243 36.2164 36.0382 37.145 34.6853Z" fill="white"/>
<path d="M100.21 28.9897H70.7513C70.0428 28.9897 69.4705 29.5621 69.4705 30.2706V59.7297C69.4705 60.4382 70.0428 61.0105 70.7513 61.0105H100.21C100.919 61.0105 101.491 60.4382 101.491 59.7297V30.2706C101.491 29.5621 100.919 28.9897 100.21 28.9897ZM96.512 38.3358H93.9543C91.949 38.3358 91.5608 39.2884 91.5608 40.6893V43.7753H96.3479L95.7235 48.6065H91.5608V61.0105H86.5696V48.6105H82.3948V43.7753H86.5696V40.213C86.5696 36.0783 89.0952 33.8249 92.7856 33.8249C94.5547 33.8249 96.0717 33.957 96.516 34.017V38.3358H96.512Z" fill="white"/>
</svg>
