<svg width="8" height="24" viewBox="0 0 8 24" fill="none" xmlns="http://www.w3.org/2000/svg">
<path d="M0.355291 0.63142C0.242666 0.830271 0.153312 1.06647 0.0923468 1.32649C0.0313812 1.58651 0 1.86526 0 2.14676C0 2.42827 0.0313812 2.70701 0.0923468 2.96704C0.153312 3.22706 0.242666 3.46326 0.355291 3.66211L5.06911 12.0019L0.355291 20.3416C0.128132 20.7435 0.000514428 21.2886 0.000514428 21.857C0.000514428 22.4253 0.128132 22.9704 0.355291 23.3723C0.582451 23.7742 0.890546 24 1.2118 24C1.53305 24 1.84114 23.7742 2.0683 23.3723L7.64471 13.5065C7.75734 13.3076 7.84669 13.0714 7.90765 12.8114C7.96862 12.5514 8 12.2726 8 11.9911C8 11.7096 7.96862 11.4309 7.90765 11.1709C7.84669 10.9108 7.75734 10.6746 7.64471 10.4758L2.0683 0.609925C1.60664 -0.206856 0.829104 -0.206856 0.355291 0.63142Z" fill="white"/>
</svg>
