<svg width="35" height="49" viewBox="0 0 35 49" fill="none" xmlns="http://www.w3.org/2000/svg">
<path d="M1.73183 1.54448C1.2426 1.94577 0.854454 2.42242 0.589624 2.94715C0.324794 3.47188 0.188477 4.03439 0.188477 4.60247C0.188477 5.17056 0.324794 5.73306 0.589624 6.2578C0.854454 6.78253 1.2426 7.25918 1.73183 7.66046L22.2083 24.4903L1.73183 41.3201C0.745071 42.1311 0.190711 43.2311 0.190711 44.378C0.190711 45.525 0.745071 46.625 1.73183 47.436C2.7186 48.2471 4.05694 48.7027 5.45243 48.7027C6.84793 48.7027 8.18627 48.2471 9.17303 47.436L33.3965 27.5266C33.8857 27.1253 34.2739 26.6486 34.5387 26.1239C34.8035 25.5992 34.9399 25.0367 34.9399 24.4686C34.9399 23.9005 34.8035 23.338 34.5387 22.8132C34.2739 22.2885 33.8857 21.8119 33.3965 21.4106L9.17303 1.5011C7.1676 -0.147176 3.79004 -0.147175 1.73183 1.54448Z" fill="white"/>
</svg>
