<svg width="23" height="75" viewBox="0 0 23 75" fill="none" xmlns="http://www.w3.org/2000/svg">
<path d="M0.992213 1.9674C0.677686 2.58698 0.428151 3.32294 0.257894 4.13312C0.0876374 4.94331 0 5.81183 0 6.68896C0 7.56608 0.0876374 8.4346 0.257894 9.24479C0.428151 10.055 0.677686 10.7909 0.992213 11.4105L14.1564 37.3958L0.992213 63.3811C0.35783 64.6334 0.00143663 66.3318 0.00143663 68.1027C0.00143663 69.8736 0.35783 71.572 0.992213 72.8243C1.6266 74.0765 2.487 74.78 3.38416 74.78C4.28131 74.78 5.14172 74.0765 5.7761 72.8243L21.3492 42.0839C21.6637 41.4643 21.9132 40.7284 22.0835 39.9182C22.2538 39.108 22.3414 38.2395 22.3414 37.3623C22.3414 36.4852 22.2538 35.6167 22.0835 34.8065C21.9132 33.9963 21.6637 33.2604 21.3492 32.6408L5.7761 1.90042C4.48682 -0.644529 2.31542 -0.644527 0.992213 1.9674Z" fill="white"/>
</svg>
