<svg width="35" height="80" viewBox="0 0 35 80" fill="none" xmlns="http://www.w3.org/2000/svg">
<path d="M33.1213 77.8804C33.6093 77.2187 33.9964 76.4326 34.2605 75.5673C34.5247 74.702 34.6606 73.7744 34.6606 72.8375C34.6606 71.9007 34.5247 70.9731 34.2605 70.1078C33.9964 69.2424 33.6093 68.4564 33.1213 67.7947L12.6982 40.041L33.1213 12.2873C34.1055 10.9499 34.6584 9.13588 34.6584 7.24444C34.6584 5.353 34.1055 3.53901 33.1213 2.20155C32.1371 0.864101 30.8023 0.11274 29.4104 0.11274C28.0185 0.11274 26.6837 0.864101 25.6995 2.20155L1.53912 35.0339C1.05115 35.6956 0.664022 36.4817 0.399882 37.347C0.135742 38.2123 -0.0002158 39.1399 -0.000215861 40.0767C-0.000215922 41.0136 0.135741 41.9412 0.399881 42.8065C0.664021 43.6718 1.05115 44.4579 1.53912 45.1196L25.6995 77.9519C27.6997 80.6701 31.0685 80.6701 33.1213 77.8804Z" fill="white"/>
</svg>
