<svg width="49" height="93" viewBox="0 0 49 93" fill="none" xmlns="http://www.w3.org/2000/svg">
<path d="M46.0022 89.7682C46.6799 89.0054 47.2176 88.0994 47.5844 87.102C47.9513 86.1046 48.1401 85.0353 48.1401 83.9555C48.1401 82.8757 47.9513 81.8065 47.5844 80.8091C47.2176 79.8117 46.6799 78.9057 46.0022 78.1429L17.6367 46.1529L46.0022 14.1628C47.3691 12.6212 48.137 10.5303 48.137 8.35019C48.137 6.17003 47.3691 4.07915 46.0022 2.53754C44.6352 0.99594 42.7813 0.12989 40.8481 0.12989C38.915 0.12989 37.061 0.99594 35.6941 2.53754L2.13802 40.3815C1.46029 41.1442 0.922606 42.0502 0.555745 43.0476C0.188884 44.045 5.39718e-05 45.1143 5.3887e-05 46.1941C5.38022e-05 47.2739 0.188883 48.3431 0.555745 49.3405C0.922606 50.3379 1.46029 51.2439 2.13802 52.0067L35.6941 89.8506C38.4722 92.9837 43.151 92.9837 46.0022 89.7682Z" fill="white"/>
</svg>
