<svg width="25" height="36" viewBox="0 0 25 36" fill="none" xmlns="http://www.w3.org/2000/svg">
<path d="M1.80642 1.30523C1.46705 1.60007 1.19781 1.95028 1.0141 2.33582C0.830399 2.72136 0.73584 3.13466 0.73584 3.55205C0.73584 3.96944 0.830399 4.38274 1.0141 4.76828C1.19781 5.15382 1.46705 5.50403 1.80642 5.79887L16.0104 18.1643L1.80642 30.5298C1.12193 31.1257 0.73739 31.9339 0.73739 32.7766C0.73739 33.6193 1.12193 34.4275 1.80642 35.0234C2.49091 35.6193 3.41928 35.9541 4.3873 35.9541C5.35531 35.9541 6.28368 35.6193 6.96817 35.0234L23.7713 20.3952C24.1107 20.1004 24.3799 19.7502 24.5636 19.3646C24.7473 18.9791 24.8419 18.5658 24.8419 18.1484C24.8419 17.731 24.7473 17.3177 24.5636 16.9322C24.3799 16.5466 24.1107 16.1964 23.7713 15.9016L6.96817 1.27336C5.57706 0.0623106 3.23414 0.0623114 1.80642 1.30523Z" fill="white"/>
</svg>
