<svg width="22" height="75" viewBox="0 0 22 75" fill="none" xmlns="http://www.w3.org/2000/svg">
<path d="M20.8156 72.8126C21.1222 72.193 21.3655 71.457 21.5315 70.6468C21.6975 69.8367 21.783 68.9681 21.783 68.091C21.783 67.2139 21.6975 66.3454 21.5315 65.5352C21.3655 64.725 21.1222 63.989 20.8156 63.3695L7.98049 37.3841L20.8156 11.3988C21.4341 10.1466 21.7816 8.4482 21.7816 6.67728C21.7816 4.90635 21.4341 3.20794 20.8156 1.95571C20.197 0.703471 19.3581 -1.6339e-05 18.4834 -1.64918e-05C17.6087 -1.66446e-05 16.7698 0.70347 16.1513 1.95571L0.967508 32.6961C0.660844 33.3157 0.417548 34.0516 0.251548 34.8618C0.0855469 35.672 0.000103546 36.5405 0.000103507 37.4176C0.000103469 38.2948 0.0855468 39.1633 0.251547 39.9735C0.417548 40.7836 0.660844 41.5196 0.967508 42.1392L16.1513 72.8795C17.4083 75.4245 19.5254 75.4245 20.8156 72.8126Z" fill="white"/>
</svg>
