<svg width="17" height="16" viewBox="0 0 17 16" fill="none" xmlns="http://www.w3.org/2000/svg">
<path d="M15.4066 3.97344C14.8986 4.17969 14.3458 4.32813 13.7764 4.38594C14.3676 4.05537 14.8103 3.53313 15.0215 2.91719C14.4667 3.2278 13.859 3.44561 13.2252 3.56094C12.9603 3.29442 12.6399 3.0821 12.284 2.93721C11.9282 2.79231 11.5444 2.71795 11.1566 2.71876C9.58778 2.71876 8.32606 3.91563 8.32606 5.38438C8.32606 5.59063 8.35262 5.79688 8.39579 5.99532C6.04667 5.87969 3.95155 4.82344 2.55868 3.20626C2.30488 3.61425 2.17189 4.0788 2.17352 4.55157C2.17352 5.47657 2.67323 6.29219 3.43524 6.77188C2.98618 6.75524 2.54763 6.63907 2.15526 6.43282V6.46563C2.15526 7.76094 3.12811 8.83438 4.42469 9.08126C4.18125 9.14077 3.93081 9.17122 3.67928 9.17188C3.49501 9.17188 3.32069 9.15469 3.14471 9.13126C3.50331 10.1875 4.54755 10.9547 5.791 10.9797C4.81815 11.6969 3.5996 12.1188 2.27645 12.1188C2.03905 12.1188 1.81991 12.1109 1.59247 12.0859C2.84755 12.8438 4.33671 13.2813 5.94042 13.2813C11.1467 13.2813 13.9955 9.22188 13.9955 5.69844C13.9955 5.58282 13.9955 5.46719 13.9872 5.35157C14.5384 4.97188 15.0215 4.50157 15.4066 3.97344Z" fill="white"/>
</svg>
