<svg width="190" height="14" viewBox="0 0 190 14" fill="none" xmlns="http://www.w3.org/2000/svg">
<path d="M7.14475 13.439C7.24761 13.3258 7.32922 13.1913 7.3849 13.0432C7.44058 12.8952 7.46924 12.7365 7.46924 12.5762C7.46924 12.4159 7.44058 12.2572 7.3849 12.1091C7.32922 11.961 7.24761 11.8265 7.14475 11.7133L2.83955 6.96457L7.14475 2.21583C7.35221 1.98698 7.46877 1.67661 7.46877 1.35298C7.46877 1.02934 7.35221 0.718964 7.14475 0.490122C6.93728 0.261279 6.65589 0.132719 6.36249 0.132719C6.06908 0.132719 5.7877 0.261279 5.58023 0.490121L0.487226 6.10784C0.384363 6.22107 0.302756 6.35556 0.247075 6.50362C0.191394 6.65168 0.162734 6.8104 0.162734 6.97069C0.162734 7.13098 0.191394 7.2897 0.247075 7.43776C0.302755 7.58582 0.384363 7.72031 0.487225 7.83354L5.58023 13.4513C6.00187 13.9163 6.71201 13.9163 7.14475 13.439Z" fill="white"/>
<path d="M182.536 0.492258C182.433 0.605485 182.352 0.739978 182.296 0.888038C182.24 1.0361 182.212 1.19482 182.212 1.35511C182.212 1.5154 182.24 1.67412 182.296 1.82218C182.352 1.97024 182.433 2.10473 182.536 2.21796L186.841 6.9667L182.536 11.7154C182.329 11.9443 182.212 12.2547 182.212 12.5783C182.212 12.9019 182.329 13.2123 182.536 13.4412C182.744 13.67 183.025 13.7986 183.319 13.7986C183.612 13.7986 183.893 13.67 184.101 13.4412L189.194 7.82344C189.297 7.71021 189.378 7.57572 189.434 7.42766C189.49 7.2796 189.518 7.12088 189.518 6.96058C189.518 6.80029 189.49 6.64157 189.434 6.49351C189.378 6.34545 189.297 6.21096 189.194 6.09773L184.101 0.480018C183.679 0.0149351 182.969 0.0149353 182.536 0.492258Z" fill="white"/>
</svg>
