<svg width="615" height="36" viewBox="0 0 615 36" fill="none" xmlns="http://www.w3.org/2000/svg">
<path d="M23.0316 34.6464C23.3652 34.36 23.6299 34.0199 23.8105 33.6455C23.991 33.271 24.084 32.8696 24.084 32.4643C24.084 32.0589 23.991 31.6575 23.8105 31.283C23.6299 30.9086 23.3652 30.5685 23.0316 30.2821L9.06921 18.2726L23.0316 6.26312C23.7045 5.68438 24.0825 4.89944 24.0825 4.08098C24.0825 3.26252 23.7045 2.47757 23.0316 1.89883C22.3588 1.32009 21.4462 0.994967 20.4946 0.994967C19.5431 0.994967 18.6305 1.32009 17.9576 1.89883L1.44026 16.106C1.10666 16.3923 0.841995 16.7324 0.661414 17.1069C0.480833 17.4813 0.387885 17.8827 0.387885 18.2881C0.387885 18.6935 0.480833 19.0949 0.661414 19.4693C0.841995 19.8438 1.10666 20.1839 1.44026 20.4702L17.9576 34.6774C19.3251 35.8535 21.6282 35.8535 23.0316 34.6464Z" fill="white"/>
<path d="M591.853 1.90426C591.519 2.19061 591.254 2.53074 591.074 2.90518C590.893 3.27962 590.8 3.68102 590.8 4.0864C590.8 4.49177 590.893 4.89317 591.074 5.26761C591.254 5.64205 591.519 5.98218 591.853 6.26854L605.815 18.278L591.853 30.2875C591.18 30.8663 590.802 31.6512 590.802 32.4697C590.802 33.2881 591.18 34.0731 591.853 34.6518C592.526 35.2306 593.438 35.5557 594.39 35.5557C595.341 35.5557 596.254 35.2306 596.927 34.6518L613.444 20.4447C613.778 20.1584 614.042 19.8182 614.223 19.4438C614.403 19.0693 614.496 18.6679 614.496 18.2626C614.496 17.8572 614.403 17.4558 614.223 17.0813C614.042 16.7069 613.778 16.3668 613.444 16.0804L596.927 1.8733C595.559 0.697116 593.256 0.697117 591.853 1.90426Z" fill="white"/>
</svg>
