<svg width="25" height="36" viewBox="0 0 25 36" fill="none" xmlns="http://www.w3.org/2000/svg">
<path d="M23.8716 35.0179C24.2109 34.723 24.4802 34.3728 24.6639 33.9873C24.8476 33.6018 24.9421 33.1885 24.9421 32.7711C24.9421 32.3537 24.8476 31.9404 24.6639 31.5548C24.4802 31.1693 24.2109 30.8191 23.8716 30.5243L9.66761 18.1588L23.8716 5.79332C24.556 5.19743 24.9406 4.38922 24.9406 3.5465C24.9406 2.70378 24.556 1.89557 23.8716 1.29968C23.1871 0.703787 22.2587 0.369023 21.2907 0.369023C20.3227 0.369023 19.3943 0.703786 18.7098 1.29968L1.90669 15.9279C1.56732 16.2227 1.29807 16.573 1.11437 16.9585C0.930662 17.344 0.836106 17.7573 0.836106 18.1747C0.836106 18.5921 0.930662 19.0054 1.11437 19.3909C1.29807 19.7765 1.56732 20.1267 1.90669 20.4215L18.7098 35.0498C20.1009 36.2608 22.4438 36.2608 23.8716 35.0179Z" fill="white"/>
</svg>
