<svg width="36" height="49" viewBox="0 0 36 49" fill="none" xmlns="http://www.w3.org/2000/svg">
<path d="M34.1295 47.4283C34.6187 47.027 35.0069 46.5504 35.2717 46.0256C35.5365 45.5009 35.6729 44.9384 35.6729 44.3703C35.6729 43.8022 35.5365 43.2397 35.2717 42.715C35.0069 42.1903 34.6187 41.7136 34.1295 41.3123L13.653 24.4825L34.1295 7.65273C35.1163 6.8417 35.6706 5.74171 35.6706 4.59474C35.6706 3.44777 35.1163 2.34777 34.1295 1.53674C33.1427 0.725712 31.8044 0.270087 30.4089 0.270087C29.0134 0.270087 27.6751 0.725712 26.6883 1.53674L2.46482 21.4462C1.97559 21.8475 1.58744 22.3242 1.32261 22.8489C1.05778 23.3736 0.921471 23.9361 0.92147 24.5042C0.92147 25.0723 1.05778 25.6348 1.32261 26.1595C1.58744 26.6843 1.97559 27.1609 2.46482 27.5622L26.6883 47.4717C28.6937 49.12 32.0713 49.12 34.1295 47.4283Z" fill="white"/>
</svg>
