<svg width="50" height="93" viewBox="0 0 50 93" fill="none" xmlns="http://www.w3.org/2000/svg">
<path d="M2.41496 2.42203C1.71985 3.18479 1.16838 4.09081 0.792114 5.08822C0.415847 6.08562 0.222168 7.15484 0.222168 8.23465C0.222168 9.31447 0.415847 10.3837 0.792114 11.3811C1.16838 12.3785 1.71985 13.2845 2.41496 14.0473L31.5077 46.0373L2.41496 78.0274C1.01297 79.569 0.225343 81.6598 0.225343 83.84C0.225343 86.0202 1.01297 88.111 2.41496 89.6526C3.81694 91.1942 5.71844 92.0603 7.70115 92.0603C9.68385 92.0603 11.5854 91.1942 12.9873 89.6526L47.4038 51.8087C48.0989 51.046 48.6504 50.14 49.0267 49.1425C49.4029 48.1451 49.5966 47.0759 49.5966 45.9961C49.5966 44.9163 49.4029 43.8471 49.0267 42.8497C48.6504 41.8523 48.0989 40.9462 47.4038 40.1835L12.9873 2.33958C10.138 -0.793468 5.33923 -0.793466 2.41496 2.42203Z" fill="white"/>
</svg>
