<svg width="8" height="24" viewBox="0 0 8 24" fill="none" xmlns="http://www.w3.org/2000/svg">
<path d="M7.64471 23.3686C7.75733 23.1697 7.84669 22.9335 7.90765 22.6735C7.96862 22.4135 8 22.1347 8 21.8532C8 21.5717 7.96862 21.293 7.90765 21.033C7.84669 20.7729 7.75733 20.5367 7.64471 20.3379L2.93089 11.9981L7.64471 3.65836C7.87187 3.25647 7.99949 2.71138 7.99949 2.14302C7.99949 1.57466 7.87187 1.02957 7.64471 0.627675C7.41755 0.225781 7.10946 1.74606e-06 6.7882 1.70727e-06C6.46695 1.66848e-06 6.15886 0.225781 5.9317 0.627675L0.355289 10.4935C0.242663 10.6924 0.15331 10.9286 0.0923446 11.1886C0.031379 11.4486 -1.24156e-06 11.7274 -1.25938e-06 12.0089C-1.2772e-06 12.2904 0.0313789 12.5691 0.0923445 12.8291C0.15331 13.0892 0.242663 13.3254 0.355289 13.5242L5.93169 23.3901C6.39336 24.2069 7.1709 24.2069 7.64471 23.3686Z" fill="white"/>
</svg>
