<svg width="8" height="15" viewBox="0 0 8 15" fill="none" xmlns="http://www.w3.org/2000/svg">
<path d="M7.14426 13.8781C7.2489 13.7615 7.33192 13.6231 7.38856 13.4706C7.44521 13.3182 7.47437 13.1547 7.47437 12.9897C7.47437 12.8247 7.44521 12.6612 7.38856 12.5088C7.33192 12.3563 7.2489 12.2179 7.14426 12.1013L2.76459 7.21178L7.14426 2.32228C7.35532 2.08666 7.47389 1.76708 7.47389 1.43386C7.47389 1.10063 7.35532 0.781052 7.14426 0.545427C6.9332 0.309801 6.64695 0.17743 6.34847 0.17743C6.04999 0.17743 5.76373 0.309801 5.55268 0.545427L0.371567 6.32965C0.266925 6.44624 0.183906 6.58472 0.127262 6.73716C0.0706179 6.88961 0.0414623 7.05303 0.0414623 7.21808C0.0414623 7.38312 0.0706179 7.54655 0.127262 7.69899C0.183906 7.85144 0.266925 7.98992 0.371567 8.10651L5.55268 13.8907C5.98161 14.3696 6.70403 14.3696 7.14426 13.8781Z" fill="white"/>
</svg>
