<svg width="9" height="15" viewBox="0 0 9 15" fill="none" xmlns="http://www.w3.org/2000/svg">
<path d="M1.13882 0.547638C1.03418 0.664222 0.95116 0.802701 0.894516 0.955149C0.837872 1.1076 0.808716 1.27102 0.808716 1.43606C0.808716 1.60111 0.837872 1.76453 0.894516 1.91698C0.95116 2.06943 1.03418 2.20791 1.13882 2.32449L5.51849 7.21399L1.13882 12.1035C0.927765 12.3391 0.809194 12.6587 0.809194 12.9919C0.809194 13.3251 0.927765 13.6447 1.13882 13.8803C1.34988 14.116 1.63613 14.2483 1.93461 14.2483C2.23309 14.2483 2.51935 14.116 2.7304 13.8803L7.91151 8.09611C8.01616 7.97953 8.09918 7.84105 8.15582 7.6886C8.21246 7.53615 8.24162 7.37273 8.24162 7.20769C8.24162 7.04264 8.21246 6.87922 8.15582 6.72677C8.09918 6.57432 8.01616 6.43584 7.91151 6.31926L2.7304 0.535036C2.30147 0.0561674 1.57905 0.0561677 1.13882 0.547638Z" fill="white"/>
</svg>
