<svg width="36" height="80" viewBox="0 0 36 80" fill="none" xmlns="http://www.w3.org/2000/svg">
<path d="M1.57881 2.10128C1.07833 2.76304 0.681274 3.54907 0.410361 4.41439C0.139449 5.27972 0 6.20734 0 7.14416C0 8.08097 0.139449 9.00859 0.410361 9.87392C0.681274 10.7392 1.07833 11.5253 1.57881 12.187L22.5256 39.9407L1.57881 67.6944C0.569379 69.0318 0.00228596 70.8458 0.00228596 72.7373C0.00228596 74.6287 0.569379 76.4427 1.57881 77.7801C2.58824 79.1176 3.95732 79.8689 5.38487 79.8689C6.81241 79.8689 8.18149 79.1176 9.19092 77.7801L33.9708 44.9478C34.4713 44.2861 34.8683 43.5 35.1392 42.6347C35.4102 41.7694 35.5496 40.8418 35.5496 39.9049C35.5496 38.9681 35.4102 38.0405 35.1392 37.1752C34.8683 36.3099 34.4713 35.5238 33.9708 34.8621L9.19092 2.02975C7.13943 -0.688391 3.68429 -0.688389 1.57881 2.10128Z" fill="white"/>
</svg>
